<svg xmlns="http://www.w3.org/2000/svg" xmlns:xlink="http://www.w3.org/1999/xlink" width="2000" zoomAndPan="magnify" viewBox="0 0 1500 1499.999933" height="2000" preserveAspectRatio="xMidYMid meet" version="1.0"><defs><g/></defs><g fill="#000000" fill-opacity="1"><g transform="translate(280.403501, 772.617441)"><g><path d="M 69.21875 -25.953125 L 92.71875 -25.953125 L 92.71875 -13.84375 L 69.21875 -13.84375 L 69.21875 0 L 57.109375 0 L 57.109375 -13.84375 L 5.46875 -13.84375 L 5.46875 -28.59375 L 56.015625 -63.75 L 69.125 -63.75 L 69.21875 -55.109375 Z M 57.109375 -25.953125 L 57.109375 -49.09375 L 21.21875 -25.953125 Z M 57.109375 -25.953125 "/></g></g></g><g fill="#000000" fill-opacity="1"><g transform="translate(378.573029, 772.617441)"><g/></g></g><g fill="#000000" fill-opacity="1"><g transform="translate(404.162679, 772.617441)"><g><path d="M 58.015625 -37.890625 C 60.441406 -37.890625 63.171875 -37.8125 66.203125 -37.65625 C 69.242188 -37.507812 72.3125 -37.144531 75.40625 -36.5625 C 78.507812 -35.988281 81.363281 -35.03125 83.96875 -33.6875 C 86.582031 -32.351562 88.675781 -30.503906 90.25 -28.140625 C 91.832031 -25.773438 92.625 -22.738281 92.625 -19.03125 C 92.625 -15.875 91.957031 -13.203125 90.625 -11.015625 C 89.289062 -8.828125 87.484375 -7.035156 85.203125 -5.640625 C 82.921875 -4.242188 80.398438 -3.148438 77.640625 -2.359375 C 74.878906 -1.578125 72.039062 -1.019531 69.125 -0.6875 C 66.207031 -0.351562 63.425781 -0.15625 60.78125 -0.09375 C 58.144531 -0.03125 55.859375 0 53.921875 0 C 48.328125 0 43.46875 -0.148438 39.34375 -0.453125 C 35.21875 -0.753906 31.601562 -1.222656 28.5 -1.859375 C 25.40625 -2.503906 22.613281 -3.375 20.125 -4.46875 C 16 -6.164062 12.722656 -8.164062 10.296875 -10.46875 C 7.867188 -12.78125 6.441406 -16.09375 6.015625 -20.40625 L 17.84375 -20.40625 C 18.03125 -19.550781 18.578125 -18.742188 19.484375 -17.984375 C 20.398438 -17.222656 22.160156 -16.296875 24.765625 -15.203125 C 27.679688 -13.929688 31.414062 -13.019531 35.96875 -12.46875 C 40.53125 -11.925781 46.515625 -11.65625 53.921875 -11.65625 C 59.503906 -11.65625 64.054688 -11.882812 67.578125 -12.34375 C 71.097656 -12.800781 73.828125 -13.390625 75.765625 -14.109375 C 77.710938 -14.835938 79.050781 -15.628906 79.78125 -16.484375 C 80.507812 -17.335938 80.875 -18.1875 80.875 -19.03125 C 80.875 -21.945312 78.867188 -23.84375 74.859375 -24.71875 C 70.859375 -25.601562 65.210938 -26.078125 57.921875 -26.140625 C 57.191406 -26.140625 56.492188 -26.140625 55.828125 -26.140625 C 55.160156 -26.140625 54.523438 -26.171875 53.921875 -26.234375 C 53.128906 -26.234375 52.257812 -26.234375 51.3125 -26.234375 C 50.375 -26.234375 49.390625 -26.234375 48.359375 -26.234375 C 43.015625 -26.171875 37.882812 -26.273438 32.96875 -26.546875 C 28.050781 -26.816406 23.585938 -27.515625 19.578125 -28.640625 C 15.578125 -29.765625 12.332031 -31.570312 9.84375 -34.0625 C 6.925781 -36.914062 5.46875 -40.40625 5.46875 -44.53125 C 5.46875 -48.90625 6.726562 -52.382812 9.25 -54.96875 C 11.769531 -57.550781 15.226562 -59.445312 19.625 -60.65625 C 24.03125 -61.875 29.128906 -62.664062 34.921875 -63.03125 C 40.722656 -63.394531 46.90625 -63.578125 53.46875 -63.578125 C 71.007812 -63.578125 82.695312 -60.082031 88.53125 -53.09375 C 89.925781 -51.394531 90.847656 -49.738281 91.296875 -48.125 C 91.753906 -46.519531 92.015625 -45.171875 92.078125 -44.078125 L 80.234375 -44.078125 C 80.179688 -44.265625 80.078125 -44.523438 79.921875 -44.859375 C 79.765625 -45.191406 79.503906 -45.570312 79.140625 -46 C 78.535156 -46.539062 77.382812 -47.28125 75.6875 -48.21875 C 73.988281 -49.164062 71.363281 -50.003906 67.8125 -50.734375 C 64.257812 -51.460938 59.476562 -51.828125 53.46875 -51.828125 C 46.175781 -51.828125 40.253906 -51.660156 35.703125 -51.328125 C 31.148438 -50.992188 27.597656 -50.535156 25.046875 -49.953125 C 22.492188 -49.378906 20.65625 -48.757812 19.53125 -48.09375 C 18.40625 -47.425781 17.738281 -46.769531 17.53125 -46.125 C 17.320312 -45.488281 17.21875 -44.957031 17.21875 -44.53125 C 17.21875 -43.6875 17.488281 -42.957031 18.03125 -42.34375 C 19.25 -41.195312 21.101562 -40.316406 23.59375 -39.703125 C 26.082031 -39.097656 28.828125 -38.660156 31.828125 -38.390625 C 34.835938 -38.117188 37.8125 -37.96875 40.75 -37.9375 C 43.695312 -37.90625 46.203125 -37.890625 48.265625 -37.890625 C 49.421875 -37.953125 50.5 -37.984375 51.5 -37.984375 C 52.5 -37.984375 53.394531 -37.953125 54.1875 -37.890625 C 54.800781 -37.890625 55.425781 -37.890625 56.0625 -37.890625 C 56.695312 -37.890625 57.347656 -37.890625 58.015625 -37.890625 Z M 58.015625 -37.890625 "/></g></g></g><g fill="#000000" fill-opacity="1"><g transform="translate(500.69291, 772.617441)"><g><path d="M 93.71875 -63.75 L 50.09375 -35.796875 L 94.8125 0 L 75.953125 0 L 39.625 -29.046875 L 17.21875 -14.65625 L 17.21875 0 L 5.46875 0 L 5.46875 -63.75 L 17.21875 -63.75 L 17.21875 -28.59375 L 71.953125 -63.75 Z M 93.71875 -63.75 "/></g></g></g><g fill="#000000" fill-opacity="1"><g transform="translate(595.037262, 772.617441)"><g><path d="M 75.953125 -63.75 L 92.078125 -63.75 L 54.828125 -23.953125 L 54.828125 0 L 43.078125 0 L 43.078125 -24.59375 L 5.46875 -63.75 L 21.765625 -63.75 L 49.265625 -35.15625 Z M 75.953125 -63.75 "/></g></g></g><g fill="#000000" fill-opacity="1"><g transform="translate(692.660392, 772.617441)"><g/></g></g><g fill="#000000" fill-opacity="1"><g transform="translate(718.25002, 772.617441)"><g><path d="M 61.5625 -26.59375 L 61.5625 -38.25 L 103.640625 -38.25 L 103.640625 -32.421875 C 103.640625 -27.265625 102.242188 -22.5625 99.453125 -18.3125 C 96.660156 -14.0625 92.695312 -10.445312 87.5625 -7.46875 C 82.4375 -4.488281 76.320312 -2.363281 69.21875 -1.09375 C 65.269531 -0.363281 61.140625 0 56.828125 0 C 51.546875 0 46.335938 -0.515625 41.203125 -1.546875 C 36.078125 -2.578125 31.28125 -4.046875 26.8125 -5.953125 C 22.351562 -7.867188 18.515625 -10.195312 15.296875 -12.9375 C 8.742188 -18.394531 5.46875 -24.707031 5.46875 -31.875 C 5.46875 -36.363281 6.785156 -40.535156 9.421875 -44.390625 C 12.066406 -48.253906 15.738281 -51.628906 20.4375 -54.515625 C 25.144531 -57.398438 30.625 -59.660156 36.875 -61.296875 C 43.132812 -62.929688 49.878906 -63.75 57.109375 -63.75 C 64.578125 -63.75 71.695312 -62.820312 78.46875 -60.96875 C 85.238281 -59.125 91.019531 -56.53125 95.8125 -53.1875 L 89.171875 -43.53125 C 85.285156 -46.269531 80.546875 -48.363281 74.953125 -49.8125 C 69.367188 -51.269531 63.421875 -52 57.109375 -52 C 52.367188 -52 47.644531 -51.515625 42.9375 -50.546875 C 38.238281 -49.578125 33.945312 -48.195312 30.0625 -46.40625 C 26.175781 -44.613281 23.0625 -42.488281 20.71875 -40.03125 C 18.382812 -37.570312 17.21875 -34.851562 17.21875 -31.875 C 17.21875 -28.351562 19.097656 -25.015625 22.859375 -21.859375 C 25.222656 -19.859375 28.132812 -18.128906 31.59375 -16.671875 C 35.0625 -15.210938 38.796875 -14.054688 42.796875 -13.203125 C 46.804688 -12.359375 50.890625 -11.875 55.046875 -11.75 C 59.210938 -11.625 63.269531 -11.925781 67.21875 -12.65625 C 73.164062 -13.75 78.171875 -15.507812 82.234375 -17.9375 C 86.304688 -20.363281 89.101562 -23.25 90.625 -26.59375 Z M 61.5625 -26.59375 "/></g></g></g><g fill="#000000" fill-opacity="1"><g transform="translate(825.161769, 772.617441)"><g><path d="M 92.8125 -43.8125 C 92.8125 -38.894531 91.65625 -34.976562 89.34375 -32.0625 C 87.039062 -29.144531 83.882812 -26.972656 79.875 -25.546875 C 75.863281 -24.117188 71.25 -23.132812 66.03125 -22.59375 L 94.625 0 L 75.59375 0 L 47.8125 -21.953125 L 17.21875 -21.953125 L 17.21875 0 L 5.46875 0 L 5.46875 -63.75 L 50.640625 -63.75 C 52.890625 -63.75 55.484375 -63.703125 58.421875 -63.609375 C 61.367188 -63.523438 64.421875 -63.316406 67.578125 -62.984375 C 70.734375 -62.648438 73.8125 -62.070312 76.8125 -61.25 C 79.820312 -60.425781 82.523438 -59.285156 84.921875 -57.828125 C 87.328125 -56.378906 89.242188 -54.515625 90.671875 -52.234375 C 92.097656 -49.953125 92.8125 -47.144531 92.8125 -43.8125 Z M 46.8125 -33.703125 C 53.3125 -33.703125 58.578125 -33.898438 62.609375 -34.296875 C 66.648438 -34.691406 69.78125 -35.222656 72 -35.890625 C 74.21875 -36.554688 75.765625 -37.328125 76.640625 -38.203125 C 77.523438 -39.085938 78.039062 -40.015625 78.1875 -40.984375 C 78.34375 -41.953125 78.421875 -42.894531 78.421875 -43.8125 C 78.421875 -45.445312 77.707031 -46.78125 76.28125 -47.8125 C 74.851562 -48.84375 72.984375 -49.644531 70.671875 -50.21875 C 68.367188 -50.800781 65.910156 -51.210938 63.296875 -51.453125 C 60.691406 -51.703125 58.1875 -51.851562 55.78125 -51.90625 C 53.382812 -51.96875 51.367188 -52 49.734375 -52 L 17.21875 -52 L 17.21875 -33.703125 Z M 46.8125 -33.703125 "/></g></g></g><g fill="#000000" fill-opacity="1"><g transform="translate(919.050784, 772.617441)"><g><path d="M 55.65625 -63.75 C 62.695312 -63.75 69.25 -62.929688 75.3125 -61.296875 C 81.382812 -59.660156 86.710938 -57.398438 91.296875 -54.515625 C 95.890625 -51.628906 99.457031 -48.253906 102 -44.390625 C 104.550781 -40.535156 105.828125 -36.363281 105.828125 -31.875 C 105.828125 -27.382812 104.550781 -23.210938 102 -19.359375 C 99.457031 -15.503906 95.890625 -12.132812 91.296875 -9.25 C 86.710938 -6.363281 81.382812 -4.097656 75.3125 -2.453125 C 69.25 -0.816406 62.695312 0 55.65625 0 C 48.601562 0 42.039062 -0.816406 35.96875 -2.453125 C 29.90625 -4.097656 24.578125 -6.363281 19.984375 -9.25 C 15.398438 -12.132812 11.832031 -15.503906 9.28125 -19.359375 C 6.738281 -23.210938 5.46875 -27.382812 5.46875 -31.875 C 5.46875 -36.363281 6.738281 -40.535156 9.28125 -44.390625 C 11.832031 -48.253906 15.398438 -51.628906 19.984375 -54.515625 C 24.578125 -57.398438 29.90625 -59.660156 35.96875 -61.296875 C 42.039062 -62.929688 48.601562 -63.75 55.65625 -63.75 Z M 55.65625 -10.921875 C 60.207031 -10.921875 64.742188 -11.453125 69.265625 -12.515625 C 73.785156 -13.578125 77.925781 -15.066406 81.6875 -16.984375 C 85.457031 -18.898438 88.460938 -21.117188 90.703125 -23.640625 C 92.953125 -26.160156 94.078125 -28.90625 94.078125 -31.875 C 94.078125 -34.851562 92.953125 -37.601562 90.703125 -40.125 C 88.460938 -42.644531 85.457031 -44.859375 81.6875 -46.765625 C 77.925781 -48.679688 73.785156 -50.171875 69.265625 -51.234375 C 64.742188 -52.296875 60.207031 -52.828125 55.65625 -52.828125 C 51.09375 -52.828125 46.550781 -52.296875 42.03125 -51.234375 C 37.507812 -50.171875 33.363281 -48.679688 29.59375 -46.765625 C 25.832031 -44.859375 22.828125 -42.644531 20.578125 -40.125 C 18.335938 -37.601562 17.21875 -34.851562 17.21875 -31.875 C 17.21875 -28.90625 18.335938 -26.160156 20.578125 -23.640625 C 22.828125 -21.117188 25.832031 -18.898438 29.59375 -16.984375 C 33.363281 -15.066406 37.507812 -13.578125 42.03125 -12.515625 C 46.550781 -11.453125 51.09375 -10.921875 55.65625 -10.921875 Z M 55.65625 -10.921875 "/></g></g></g><g fill="#000000" fill-opacity="1"><g transform="translate(1027.510644, 772.617441)"><g><path d="M 91.4375 -63.75 L 91.4375 -38.078125 C 91.5 -36.554688 91.46875 -34.6875 91.34375 -32.46875 C 91.226562 -30.25 90.910156 -27.863281 90.390625 -25.3125 C 89.878906 -22.769531 88.984375 -20.191406 87.703125 -17.578125 C 86.429688 -14.960938 84.671875 -12.503906 82.421875 -10.203125 C 75.679688 -3.398438 65.601562 0 52.1875 0 L 44.71875 0 C 31.363281 0 21.316406 -3.398438 14.578125 -10.203125 C 12.265625 -12.503906 10.484375 -14.960938 9.234375 -17.578125 C 7.992188 -20.191406 7.097656 -22.769531 6.546875 -25.3125 C 6.003906 -27.863281 5.6875 -30.25 5.59375 -32.46875 C 5.507812 -34.6875 5.46875 -36.554688 5.46875 -38.078125 L 5.46875 -63.75 L 17.21875 -63.75 L 17.21875 -38.078125 C 17.21875 -36.304688 17.289062 -34.265625 17.4375 -31.953125 C 17.59375 -29.648438 18.0625 -27.316406 18.84375 -24.953125 C 19.632812 -22.585938 20.972656 -20.429688 22.859375 -18.484375 C 27.296875 -13.992188 34.582031 -11.75 44.71875 -11.75 L 52.1875 -11.75 C 62.320312 -11.75 69.609375 -13.992188 74.046875 -18.484375 C 75.992188 -20.429688 77.359375 -22.585938 78.140625 -24.953125 C 78.929688 -27.316406 79.398438 -29.648438 79.546875 -31.953125 C 79.703125 -34.265625 79.78125 -36.304688 79.78125 -38.078125 L 79.78125 -63.75 Z M 91.4375 -63.75 "/></g></g></g><g fill="#000000" fill-opacity="1"><g transform="translate(1123.85881, 772.617441)"><g><path d="M 49.734375 -63.75 C 52.398438 -63.75 55.492188 -63.6875 59.015625 -63.5625 C 62.535156 -63.445312 66.117188 -63.082031 69.765625 -62.46875 C 73.410156 -61.863281 76.78125 -60.863281 79.875 -59.46875 C 82.96875 -58.070312 85.457031 -56.113281 87.34375 -53.59375 C 89.226562 -51.070312 90.171875 -47.8125 90.171875 -43.8125 C 90.171875 -39.070312 89.132812 -35.257812 87.0625 -32.375 C 85 -29.488281 82.128906 -27.300781 78.453125 -25.8125 C 74.785156 -24.332031 70.550781 -23.332031 65.75 -22.8125 C 60.957031 -22.300781 55.859375 -22.015625 50.453125 -21.953125 L 17.21875 -21.953125 L 17.21875 0 L 5.46875 0 L 5.46875 -63.75 Z M 46.8125 -33.703125 C 53.3125 -33.703125 58.578125 -33.898438 62.609375 -34.296875 C 66.648438 -34.691406 69.78125 -35.222656 72 -35.890625 C 74.21875 -36.554688 75.765625 -37.328125 76.640625 -38.203125 C 77.523438 -39.085938 78.039062 -40.015625 78.1875 -40.984375 C 78.34375 -41.953125 78.421875 -42.894531 78.421875 -43.8125 C 78.421875 -45.445312 77.707031 -46.78125 76.28125 -47.8125 C 74.851562 -48.84375 72.984375 -49.644531 70.671875 -50.21875 C 68.367188 -50.800781 65.910156 -51.210938 63.296875 -51.453125 C 60.691406 -51.703125 58.1875 -51.851562 55.78125 -51.90625 C 53.382812 -51.96875 51.367188 -52 49.734375 -52 L 17.21875 -52 L 17.21875 -33.703125 Z M 46.8125 -33.703125 "/></g></g></g></svg>